<svg enable-background="new 0 0 963.4 280.8" viewBox="0 0 963.4 280.8" xmlns="http://www.w3.org/2000/svg"><path d="m393.9 26.9c0-8.1-6.2-12.6-14.2-12.6h-14.2v43.5h14.2c8 0 14.2-4.5 14.2-12.6zm-43.1 44.2v-70.1h28.9c18.4 0 28.9 10.4 28.9 25.9v18.2c0 15.5-10.5 25.9-28.9 25.9h-28.9z" fill="#0c2a31"/><path d="m468.1 25.9c0-8.1-6.2-12.6-14.2-12.6s-14.2 4.5-14.2 12.6v20.2c0 8.1 6.2 12.6 14.2 12.6s14.2-4.5 14.2-12.6zm-14.2 46.2c-18.4 0-28.9-10.4-28.9-25.9v-20.3c0-15.5 10.5-25.9 28.9-25.9s28.9 10.4 28.9 25.9v20.2c0 15.6-10.5 26-28.9 26" fill="#0c2a31"/><path d="m538.9 31.8-12.4 39.3h-15.9l-14.1-70.1h14.8l8.8 47.5 14.2-47.5h9.1l14.3 47.5 8.8-47.5h14.8l-14.1 70.1h-15.9z" fill="#0c2a31"/><path d="m658.6 1h14.7v50.1c0 13.9-8.4 21-22.8 21s-22.8-7.1-22.8-21h14.8c.4 5 3.3 7.7 8 7.7 5.7 0 8.1-3.5 8.1-8.1z" fill="#0c2a31"/><path d="m734.2 25.9c0-8.1-6.2-12.6-14.2-12.6s-14.2 4.5-14.2 12.6v20.2c0 8.1 6.2 12.6 14.2 12.6s14.2-4.5 14.2-12.6zm-14.2 46.2c-18.4 0-28.9-10.4-28.9-25.9v-20.3c0-15.5 10.5-25.9 28.9-25.9s28.9 10.4 28.9 25.9v20.2c0 15.6-10.5 26-28.9 26" fill="#0c2a31"/><path d="m824.5 71.1h-14.6l-28.5-45.2v45.2h-14.6v-70.1h14.6l28.5 45.2v-45.2h14.6z" fill="#0c2a31"/><path d="m858.6 29h28.6v13.4h-28.6v15.4h31.9v13.3h-46.6v-70.1h46.6v13.3h-31.9z" fill="#0c2a31"/><path d="m905.9 49h15.1c.9 5.9 5.9 9.8 13.2 9.8 6.5 0 10.9-2.2 10.9-7 0-3.9-2.5-6.1-7.9-7.4l-12.9-3.2c-11.7-2.9-17.5-10.4-17.5-20.7 0-14 12-20.4 25.4-20.4 15.3 0 24.8 8.2 26.5 20.1h-15.1c-1.3-4.7-6.7-6.8-11.6-6.8-6.1 0-10.5 2.2-10.5 7.1 0 4.1 3.5 5.9 7.7 6.9l12.5 3.1c11.8 2.9 18.2 9.5 18.2 21.3 0 12.6-9 20.3-25.6 20.3-16.8 0-27.6-9.2-28.4-23.1" fill="#0c2a31"/><path d="m187.1 93.6c-.5-5.8-.7-8.3-1.9-12.2-5.8-20-24.2-34.6-46.1-34.6h-92.3v187.2h46.9v46.9h-93.7v-280.9h139.8c47.2 0 86.3 34.4 93 79.7.7 4.4 1.1 9 1.1 13.9z" fill="#00a2d4"/><path d="m233.9 128.6v58.1c0 51.9-43.6 94.1-95.4 94.1h-9.8v-46.8h9.4c26.4 0 49.1-21.5 49.1-47.9v-57.4h46.7z" fill="#00a2d4"/><g fill="#02a3d5"><path d="m350.8 179.1v-76h27.2c16.3 0 27.2 10.4 27.2 26.8v22.4c0 16.4-11 26.8-27.2 26.8zm27.3-11.5c7.6 0 15.6-4.9 15.6-15.5v-21.9c0-10.6-8-15.5-15.6-15.5h-15.6v53h15.6z"/><path d="m438.3 135.1h33.2v11.5h-33.2v21.1h33.2v11.5h-44.8v-76h44.8v11.5h-33.2z"/><path d="m524.8 179.1h-11.9l-26.6-76h11.9l20.6 59.3 20.6-59.3h11.9z"/><path d="m579.5 135.1h33.2v11.5h-33.2v21.1h33.2v11.5h-44.8v-76h44.8v11.5h-33.2z"/><path d="m634.6 103.2h11.6v64.5h33.2v11.5h-44.8z"/><path d="m692.5 128.9c0-16.4 11-26.8 27.2-26.8 16.3 0 27.2 10.4 27.2 26.8v24.5c0 16.4-11 26.8-27.2 26.8-16.3 0-27.2-10.4-27.2-26.8zm42.9 0c0-10.6-8-15.3-15.6-15.3s-15.6 4.7-15.6 15.3v24.5c0 10.6 8 15.3 15.6 15.3s15.6-4.7 15.6-15.3z"/><path d="m780 179.1h-11.6v-76h28.9c17.6 0 25.6 11.4 25.6 24.9s-8 24.9-25.6 24.9h-17.3zm0-64.7v26.9h17.3c9.8 0 13.8-6.2 13.8-13.5s-4-13.5-13.8-13.5h-17.3z"/><path d="m852.6 135.1h33.2v11.5h-33.2v21.1h33.2v11.5h-44.8v-76h44.8v11.5h-33.2z"/><path d="m919.3 146.5v32.7h-11.6v-76h29.8c15.1 0 23.3 8.6 23.3 21.7 0 11.2-6 19-17 21.1l19.5 33.2h-13l-19.2-32.7zm18.3-31.8h-18.2v20.6h18.2c7.1 0 11.5-3.7 11.5-10.3s-4.5-10.3-11.5-10.3z"/><path d="m362.4 275.6h-11.6v-76h28.9c17.6 0 25.6 11.4 25.6 24.9s-8 24.9-25.6 24.9h-17.3zm0-64.7v26.9h17.3c9.8 0 13.8-6.2 13.8-13.5s-4-13.5-13.8-13.5h-17.3z"/><path d="m423.4 199.6h11.6v64.5h33.2v11.5h-44.8z"/><path d="m524.5 257.3h-28.5l-6.4 18.3h-11.9l26.6-76h11.9l26.6 76h-11.9zm-3.7-10.8-10.5-30.2-10.5 30.2z"/><path d="m579.4 211.1v64.5h-11.6v-64.5h-21.4v-11.5h54.4v11.5z"/><path d="m628.9 231.5h33.2v11.5h-33.2v32.6h-11.6v-76h44.8v11.5h-33.2z"/><path d="m680.7 225.4c0-16.4 11-26.8 27.2-26.8 16.3 0 27.2 10.4 27.2 26.8v24.5c0 16.4-11 26.8-27.2 26.8-16.3 0-27.2-10.4-27.2-26.8zm42.8 0c0-10.6-8-15.3-15.6-15.3s-15.6 4.7-15.6 15.3v24.5c0 10.6 8 15.3 15.6 15.3s15.6-4.7 15.6-15.3z"/><path d="m768.1 242.9v32.7h-11.6v-76h29.8c15.1 0 23.3 8.6 23.3 21.7 0 11.2-6 19-17 21.1l19.5 33.2h-13l-19.1-32.7zm18.3-31.8h-18.2v20.6h18.2c7.1 0 11.5-3.7 11.5-10.3s-4.5-10.3-11.5-10.3z"/><path d="m882.5 199.6h11.6v76h-11.5v-52.7l-15.6 32.3h-9.6l-15.6-32.3v52.7h-11.5v-76h11.6l20.3 42z"/></g></svg>