<?xml version="1.0" encoding="utf-8"?>
<!-- Generator: Adobe Illustrator 24.1.3, SVG Export Plug-In . SVG Version: 6.00 Build 0)  -->
<svg version="1.1" id="Layer_1" xmlns="http://www.w3.org/2000/svg" xmlns:xlink="http://www.w3.org/1999/xlink" x="0px" y="0px"
	 viewBox="0 0 963.4 280.8" style="enable-background:new 0 0 963.4 280.8;" xml:space="preserve">
<style type="text/css">
	.st0{fill:#0C2A31;}
	.st1{fill:#00A2D4;}
	.st2{fill:#02A3D5;}
</style>
<g>
	<g>
		<path class="st0" d="M393.9,26.9c0-8.1-6.2-12.6-14.2-12.6h-14.2v43.5h14.2c8,0,14.2-4.5,14.2-12.6V26.9z M350.8,71.1V1h28.9
			c18.4,0,28.9,10.4,28.9,25.9v18.2c0,15.5-10.5,25.9-28.9,25.9H350.8z"/>
		<path class="st0" d="M468.1,25.9c0-8.1-6.2-12.6-14.2-12.6c-8,0-14.2,4.5-14.2,12.6v20.2c0,8.1,6.2,12.6,14.2,12.6
			c8,0,14.2-4.5,14.2-12.6V25.9z M453.9,72.1c-18.4,0-28.9-10.4-28.9-25.9V25.9C425,10.4,435.5,0,453.9,0
			c18.4,0,28.9,10.4,28.9,25.9v20.2C482.8,61.7,472.3,72.1,453.9,72.1"/>
	</g>
	<polygon id="XMLID_87_" class="st0" points="538.9,31.8 526.5,71.1 510.6,71.1 496.5,1 511.3,1 520.1,48.5 534.3,1 543.4,1 
		557.7,48.5 566.5,1 581.3,1 567.2,71.1 551.3,71.1 	"/>
	<g>
		<path id="XMLID_86_" class="st0" d="M658.6,1h14.7v50.1c0,13.9-8.4,21-22.8,21s-22.8-7.1-22.8-21h14.8c0.4,5,3.3,7.7,8,7.7
			c5.7,0,8.1-3.5,8.1-8.1V1z"/>
		<path class="st0" d="M734.2,25.9c0-8.1-6.2-12.6-14.2-12.6s-14.2,4.5-14.2,12.6v20.2c0,8.1,6.2,12.6,14.2,12.6s14.2-4.5,14.2-12.6
			V25.9z M720,72.1c-18.4,0-28.9-10.4-28.9-25.9V25.9C691.1,10.4,701.6,0,720,0s28.9,10.4,28.9,25.9v20.2
			C748.9,61.7,738.4,72.1,720,72.1"/>
	</g>
	<polygon id="XMLID_83_" class="st0" points="824.5,71.1 809.9,71.1 781.4,25.9 781.4,71.1 766.8,71.1 766.8,1 781.4,1 809.9,46.2 
		809.9,1 824.5,1 	"/>
	<polygon id="XMLID_82_" class="st0" points="858.6,29 887.2,29 887.2,42.4 858.6,42.4 858.6,57.8 890.5,57.8 890.5,71.1 
		843.9,71.1 843.9,1 890.5,1 890.5,14.3 858.6,14.3 	"/>
	<g>
		<path id="XMLID_81_" class="st0" d="M905.9,49H921c0.9,5.9,5.9,9.8,13.2,9.8c6.5,0,10.9-2.2,10.9-7c0-3.9-2.5-6.1-7.9-7.4
			l-12.9-3.2c-11.7-2.9-17.5-10.4-17.5-20.7c0-14,12-20.4,25.4-20.4c15.3,0,24.8,8.2,26.5,20.1h-15.1c-1.3-4.7-6.7-6.8-11.6-6.8
			c-6.1,0-10.5,2.2-10.5,7.1c0,4.1,3.5,5.9,7.7,6.9l12.5,3.1c11.8,2.9,18.2,9.5,18.2,21.3c0,12.6-9,20.3-25.6,20.3
			C917.5,72.1,906.7,62.9,905.9,49"/>
	</g>
</g>
<g>
	<path id="XMLID_80_" class="st1" d="M187.1,93.6c-0.5-5.8-0.7-8.3-1.9-12.2c-5.8-20-24.2-34.6-46.1-34.6H46.8V234h46.9v46.9H0V0
		h139.8c47.2,0,86.3,34.4,93,79.7c0.7,4.4,1.1,9,1.1,13.9L187.1,93.6z"/>
	<path id="XMLID_79_" class="st1" d="M233.9,128.6v58.1c0,51.9-43.6,94.1-95.4,94.1h-9.8V234h9.4c26.4,0,49.1-21.5,49.1-47.9v-57.4
		H233.9z"/>
</g>
<g>
	<path class="st2" d="M350.8,179.1v-76h27.2c16.3,0,27.2,10.4,27.2,26.8v22.4c0,16.4-11,26.8-27.2,26.8H350.8z M378.1,167.6
		c7.6,0,15.6-4.9,15.6-15.5v-21.9c0-10.6-8-15.5-15.6-15.5h-15.6v53H378.1z"/>
	<path class="st2" d="M438.3,135.1h33.2v11.5h-33.2v21.1h33.2v11.5h-44.8v-76h44.8v11.5h-33.2V135.1z"/>
	<path class="st2" d="M524.8,179.1h-11.9l-26.6-76h11.9l20.6,59.3l20.6-59.3h11.9L524.8,179.1z"/>
	<path class="st2" d="M579.5,135.1h33.2v11.5h-33.2v21.1h33.2v11.5h-44.8v-76h44.8v11.5h-33.2V135.1z"/>
	<path class="st2" d="M634.6,103.2h11.6v64.5h33.2v11.5h-44.8V103.2z"/>
	<path class="st2" d="M692.5,128.9c0-16.4,11-26.8,27.2-26.8c16.3,0,27.2,10.4,27.2,26.8v24.5c0,16.4-11,26.8-27.2,26.8
		c-16.3,0-27.2-10.4-27.2-26.8V128.9z M735.4,128.9c0-10.6-8-15.3-15.6-15.3s-15.6,4.7-15.6,15.3v24.5c0,10.6,8,15.3,15.6,15.3
		s15.6-4.7,15.6-15.3V128.9z"/>
	<path class="st2" d="M780,179.1h-11.6v-76h28.9c17.6,0,25.6,11.4,25.6,24.9c0,13.5-8,24.9-25.6,24.9H780V179.1z M780,114.4v26.9
		h17.3c9.8,0,13.8-6.2,13.8-13.5c0-7.3-4-13.5-13.8-13.5H780z"/>
	<path class="st2" d="M852.6,135.1h33.2v11.5h-33.2v21.1h33.2v11.5H841v-76h44.8v11.5h-33.2V135.1z"/>
	<path class="st2" d="M919.3,146.5v32.7h-11.6v-76h29.8c15.1,0,23.3,8.6,23.3,21.7c0,11.2-6,19-17,21.1l19.5,33.2h-13l-19.2-32.7
		H919.3z M937.6,114.7h-18.2v20.6h18.2c7.1,0,11.5-3.7,11.5-10.3C949.1,118.4,944.6,114.7,937.6,114.7z"/>
	<path class="st2" d="M362.4,275.6h-11.6v-76h28.9c17.6,0,25.6,11.4,25.6,24.9c0,13.5-8,24.9-25.6,24.9h-17.3V275.6z M362.4,210.9
		v26.9h17.3c9.8,0,13.8-6.2,13.8-13.5c0-7.3-4-13.5-13.8-13.5H362.4z"/>
	<path class="st2" d="M423.4,199.6H435v64.5h33.2v11.5h-44.8V199.6z"/>
	<path class="st2" d="M524.5,257.3H496l-6.4,18.3h-11.9l26.6-76h11.9l26.6,76h-11.9L524.5,257.3z M520.8,246.5l-10.5-30.2
		l-10.5,30.2H520.8z"/>
	<path class="st2" d="M579.4,211.1v64.5h-11.6v-64.5h-21.4v-11.5h54.4v11.5H579.4z"/>
	<path class="st2" d="M628.9,231.5h33.2v11.5h-33.2v32.6h-11.6v-76h44.8v11.5h-33.2V231.5z"/>
	<path class="st2" d="M680.7,225.4c0-16.4,11-26.8,27.2-26.8c16.3,0,27.2,10.4,27.2,26.8v24.5c0,16.4-11,26.8-27.2,26.8
		c-16.3,0-27.2-10.4-27.2-26.8V225.4z M723.5,225.4c0-10.6-8-15.3-15.6-15.3s-15.6,4.7-15.6,15.3v24.5c0,10.6,8,15.3,15.6,15.3
		s15.6-4.7,15.6-15.3V225.4z"/>
	<path class="st2" d="M768.1,242.9v32.7h-11.6v-76h29.8c15.1,0,23.3,8.6,23.3,21.7c0,11.2-6,19-17,21.1l19.5,33.2h-13L780,242.9
		H768.1z M786.4,211.1h-18.2v20.6h18.2c7.1,0,11.5-3.7,11.5-10.3C797.9,214.8,793.4,211.1,786.4,211.1z"/>
	<path class="st2" d="M882.5,199.6h11.6v76h-11.5v-52.7L867,255.2h-9.6l-15.6-32.3v52.7h-11.5v-76h11.6l20.3,42L882.5,199.6z"/>
</g>
</svg>
